<svg id="visual" viewBox="0 0 960 540" width="960" height="540" xmlns="http://www.w3.org/2000/svg"
  xmlns:xlink="http://www.w3.org/1999/xlink" version="1.1">
  <rect x="0" y="0" width="960" height="540" fill="#1e1e1e"></rect>
  <path
    d="M0 398L17.8 395.5C35.7 393 71.3 388 106.8 387.8C142.3 387.7 177.7 392.3 213.2 392C248.7 391.7 284.3 386.3 320 381.8C355.7 377.3 391.3 373.7 426.8 370.8C462.3 368 497.7 366 533.2 371.8C568.7 377.7 604.3 391.3 640 392.5C675.7 393.7 711.3 382.3 746.8 383C782.3 383.7 817.7 396.3 853.2 394.7C888.7 393 924.3 377 942.2 369L960 361L960 541L942.2 541C924.3 541 888.7 541 853.2 541C817.7 541 782.3 541 746.8 541C711.3 541 675.7 541 640 541C604.3 541 568.7 541 533.2 541C497.7 541 462.3 541 426.8 541C391.3 541 355.7 541 320 541C284.3 541 248.7 541 213.2 541C177.7 541 142.3 541 106.8 541C71.3 541 35.7 541 17.8 541L0 541Z"
    fill="#65097a"></path>
  <path
    d="M0 394L17.8 394.5C35.7 395 71.3 396 106.8 401.2C142.3 406.3 177.7 415.7 213.2 418.7C248.7 421.7 284.3 418.3 320 414.2C355.7 410 391.3 405 426.8 405C462.3 405 497.7 410 533.2 409.3C568.7 408.7 604.3 402.3 640 400C675.7 397.7 711.3 399.3 746.8 404.5C782.3 409.7 817.7 418.3 853.2 419.7C888.7 421 924.3 415 942.2 412L960 409L960 541L942.2 541C924.3 541 888.7 541 853.2 541C817.7 541 782.3 541 746.8 541C711.3 541 675.7 541 640 541C604.3 541 568.7 541 533.2 541C497.7 541 462.3 541 426.8 541C391.3 541 355.7 541 320 541C284.3 541 248.7 541 213.2 541C177.7 541 142.3 541 106.8 541C71.3 541 35.7 541 17.8 541L0 541Z"
    fill="#74098b"></path>
  <path
    d="M0 440L17.8 436.7C35.7 433.3 71.3 426.7 106.8 427.7C142.3 428.7 177.7 437.3 213.2 440.5C248.7 443.7 284.3 441.3 320 438.7C355.7 436 391.3 433 426.8 429.5C462.3 426 497.7 422 533.2 422C568.7 422 604.3 426 640 427.3C675.7 428.7 711.3 427.3 746.8 427C782.3 426.7 817.7 427.3 853.2 427.5C888.7 427.7 924.3 427.3 942.2 427.2L960 427L960 541L942.2 541C924.3 541 888.7 541 853.2 541C817.7 541 782.3 541 746.8 541C711.3 541 675.7 541 640 541C604.3 541 568.7 541 533.2 541C497.7 541 462.3 541 426.8 541C391.3 541 355.7 541 320 541C284.3 541 248.7 541 213.2 541C177.7 541 142.3 541 106.8 541C71.3 541 35.7 541 17.8 541L0 541Z"
    fill="#83089d"></path>
  <path
    d="M0 446L17.8 446.2C35.7 446.3 71.3 446.7 106.8 449.2C142.3 451.7 177.7 456.3 213.2 458C248.7 459.7 284.3 458.3 320 460.5C355.7 462.7 391.3 468.3 426.8 466.3C462.3 464.3 497.7 454.7 533.2 450.2C568.7 445.7 604.3 446.3 640 446C675.7 445.7 711.3 444.3 746.8 449C782.3 453.7 817.7 464.3 853.2 467.3C888.7 470.3 924.3 465.7 942.2 463.3L960 461L960 541L942.2 541C924.3 541 888.7 541 853.2 541C817.7 541 782.3 541 746.8 541C711.3 541 675.7 541 640 541C604.3 541 568.7 541 533.2 541C497.7 541 462.3 541 426.8 541C391.3 541 355.7 541 320 541C284.3 541 248.7 541 213.2 541C177.7 541 142.3 541 106.8 541C71.3 541 35.7 541 17.8 541L0 541Z"
    fill="#911aac"></path>
  <path
    d="M0 496L17.8 495.5C35.7 495 71.3 494 106.8 492.2C142.3 490.3 177.7 487.7 213.2 486.2C248.7 484.7 284.3 484.3 320 483.8C355.7 483.3 391.3 482.7 426.8 480.8C462.3 479 497.7 476 533.2 475.5C568.7 475 604.3 477 640 480.8C675.7 484.7 711.3 490.3 746.8 491.8C782.3 493.3 817.7 490.7 853.2 489.8C888.7 489 924.3 490 942.2 490.5L960 491L960 541L942.2 541C924.3 541 888.7 541 853.2 541C817.7 541 782.3 541 746.8 541C711.3 541 675.7 541 640 541C604.3 541 568.7 541 533.2 541C497.7 541 462.3 541 426.8 541C391.3 541 355.7 541 320 541C284.3 541 248.7 541 213.2 541C177.7 541 142.3 541 106.8 541C71.3 541 35.7 541 17.8 541L0 541Z"
    fill="#9e31b7"></path>
  <path
    d="M0 519L17.8 518.7C35.7 518.3 71.3 517.7 106.8 515.7C142.3 513.7 177.7 510.3 213.2 509.2C248.7 508 284.3 509 320 510.5C355.7 512 391.3 514 426.8 513.2C462.3 512.3 497.7 508.7 533.2 507C568.7 505.3 604.3 505.7 640 505C675.7 504.3 711.3 502.7 746.8 502.7C782.3 502.7 817.7 504.3 853.2 506.5C888.7 508.7 924.3 511.3 942.2 512.7L960 514L960 541L942.2 541C924.3 541 888.7 541 853.2 541C817.7 541 782.3 541 746.8 541C711.3 541 675.7 541 640 541C604.3 541 568.7 541 533.2 541C497.7 541 462.3 541 426.8 541C391.3 541 355.7 541 320 541C284.3 541 248.7 541 213.2 541C177.7 541 142.3 541 106.8 541C71.3 541 35.7 541 17.8 541L0 541Z"
    fill="#ab44c2"></path>
</svg>