<svg id="visual" viewBox="0 0 960 540" width="960" height="540" xmlns="http://www.w3.org/2000/svg" xmlns:xlink="http://www.w3.org/1999/xlink" version="1.1"><rect x="0" y="0" width="960" height="540" fill="#1e1e1e"></rect><path d="M0 142L22.8 155.7C45.7 169.3 91.3 196.7 137 200.7C182.7 204.7 228.3 185.3 274 177.8C319.7 170.3 365.3 174.7 411.2 174.7C457 174.7 503 170.3 548.8 163.3C594.7 156.3 640.3 146.7 686 150.5C731.7 154.3 777.3 171.7 823 171.7C868.7 171.7 914.3 154.3 937.2 145.7L960 137L960 0L937.2 0C914.3 0 868.7 0 823 0C777.3 0 731.7 0 686 0C640.3 0 594.7 0 548.8 0C503 0 457 0 411.2 0C365.3 0 319.7 0 274 0C228.3 0 182.7 0 137 0C91.3 0 45.7 0 22.8 0L0 0Z" fill="#303030"></path><path d="M0 149L22.8 142C45.7 135 91.3 121 137 125.3C182.7 129.7 228.3 152.3 274 157.8C319.7 163.3 365.3 151.7 411.2 153.2C457 154.7 503 169.3 548.8 167.3C594.7 165.3 640.3 146.7 686 139.2C731.7 131.7 777.3 135.3 823 135.5C868.7 135.7 914.3 132.3 937.2 130.7L960 129L960 0L937.2 0C914.3 0 868.7 0 823 0C777.3 0 731.7 0 686 0C640.3 0 594.7 0 548.8 0C503 0 457 0 411.2 0C365.3 0 319.7 0 274 0C228.3 0 182.7 0 137 0C91.3 0 45.7 0 22.8 0L0 0Z" fill="#252525"></path><path d="M0 122L22.8 116C45.7 110 91.3 98 137 92.8C182.7 87.7 228.3 89.3 274 94.5C319.7 99.7 365.3 108.3 411.2 112.8C457 117.3 503 117.7 548.8 116.3C594.7 115 640.3 112 686 107.5C731.7 103 777.3 97 823 96.2C868.7 95.3 914.3 99.7 937.2 101.8L960 104L960 0L937.2 0C914.3 0 868.7 0 823 0C777.3 0 731.7 0 686 0C640.3 0 594.7 0 548.8 0C503 0 457 0 411.2 0C365.3 0 319.7 0 274 0C228.3 0 182.7 0 137 0C91.3 0 45.7 0 22.8 0L0 0Z" fill="#1b1b1b"></path><path d="M0 53L22.8 55.5C45.7 58 91.3 63 137 68.7C182.7 74.3 228.3 80.7 274 85.2C319.7 89.7 365.3 92.3 411.2 90C457 87.7 503 80.3 548.8 76.2C594.7 72 640.3 71 686 72.2C731.7 73.3 777.3 76.7 823 73.7C868.7 70.7 914.3 61.3 937.2 56.7L960 52L960 0L937.2 0C914.3 0 868.7 0 823 0C777.3 0 731.7 0 686 0C640.3 0 594.7 0 548.8 0C503 0 457 0 411.2 0C365.3 0 319.7 0 274 0C228.3 0 182.7 0 137 0C91.3 0 45.7 0 22.8 0L0 0Z" fill="#111111"></path><path d="M0 40L22.8 38.3C45.7 36.7 91.3 33.3 137 33C182.7 32.7 228.3 35.3 274 37.2C319.7 39 365.3 40 411.2 43.7C457 47.3 503 53.7 548.8 57.7C594.7 61.7 640.3 63.3 686 62.3C731.7 61.3 777.3 57.7 823 52.7C868.7 47.7 914.3 41.3 937.2 38.2L960 35L960 0L937.2 0C914.3 0 868.7 0 823 0C777.3 0 731.7 0 686 0C640.3 0 594.7 0 548.8 0C503 0 457 0 411.2 0C365.3 0 319.7 0 274 0C228.3 0 182.7 0 137 0C91.3 0 45.7 0 22.8 0L0 0Z" fill="#000000"></path></svg>