<svg id="visual" viewBox="0 0 960 540" width="960" height="540" xmlns="http://www.w3.org/2000/svg" xmlns:xlink="http://www.w3.org/1999/xlink" version="1.1"><rect x="0" y="0" width="960" height="540" fill="#1e1e1e"></rect><path d="M0 396L22.8 382.3C45.7 368.7 91.3 341.3 137 337.3C182.7 333.3 228.3 352.7 274 360.2C319.7 367.7 365.3 363.3 411.2 363.3C457 363.3 503 367.7 548.8 374.7C594.7 381.7 640.3 391.3 686 387.5C731.7 383.7 777.3 366.3 823 366.3C868.7 366.3 914.3 383.7 937.2 392.3L960 401L960 541L937.2 541C914.3 541 868.7 541 823 541C777.3 541 731.7 541 686 541C640.3 541 594.7 541 548.8 541C503 541 457 541 411.2 541C365.3 541 319.7 541 274 541C228.3 541 182.7 541 137 541C91.3 541 45.7 541 22.8 541L0 541Z" fill="#303030"></path><path d="M0 389L22.8 396C45.7 403 91.3 417 137 412.7C182.7 408.3 228.3 385.7 274 380.2C319.7 374.7 365.3 386.3 411.2 384.8C457 383.3 503 368.7 548.8 370.7C594.7 372.7 640.3 391.3 686 398.8C731.7 406.3 777.3 402.7 823 402.5C868.7 402.3 914.3 405.7 937.2 407.3L960 409L960 541L937.2 541C914.3 541 868.7 541 823 541C777.3 541 731.7 541 686 541C640.3 541 594.7 541 548.8 541C503 541 457 541 411.2 541C365.3 541 319.7 541 274 541C228.3 541 182.7 541 137 541C91.3 541 45.7 541 22.8 541L0 541Z" fill="#252525"></path><path d="M0 416L22.8 422C45.7 428 91.3 440 137 445.2C182.7 450.3 228.3 448.7 274 443.5C319.7 438.3 365.3 429.7 411.2 425.2C457 420.7 503 420.3 548.8 421.7C594.7 423 640.3 426 686 430.5C731.7 435 777.3 441 823 441.8C868.7 442.7 914.3 438.3 937.2 436.2L960 434L960 541L937.2 541C914.3 541 868.7 541 823 541C777.3 541 731.7 541 686 541C640.3 541 594.7 541 548.8 541C503 541 457 541 411.2 541C365.3 541 319.7 541 274 541C228.3 541 182.7 541 137 541C91.3 541 45.7 541 22.8 541L0 541Z" fill="#1b1b1b"></path><path d="M0 485L22.8 482.5C45.7 480 91.3 475 137 469.3C182.7 463.7 228.3 457.3 274 452.8C319.7 448.3 365.3 445.7 411.2 448C457 450.3 503 457.7 548.8 461.8C594.7 466 640.3 467 686 465.8C731.7 464.7 777.3 461.3 823 464.3C868.7 467.3 914.3 476.7 937.2 481.3L960 486L960 541L937.2 541C914.3 541 868.7 541 823 541C777.3 541 731.7 541 686 541C640.3 541 594.7 541 548.8 541C503 541 457 541 411.2 541C365.3 541 319.7 541 274 541C228.3 541 182.7 541 137 541C91.3 541 45.7 541 22.8 541L0 541Z" fill="#111111"></path><path d="M0 498L22.8 499.7C45.7 501.3 91.3 504.7 137 505C182.7 505.3 228.3 502.7 274 500.8C319.7 499 365.3 498 411.2 494.3C457 490.7 503 484.3 548.8 480.3C594.7 476.3 640.3 474.7 686 475.7C731.7 476.7 777.3 480.3 823 485.3C868.7 490.3 914.3 496.7 937.2 499.8L960 503L960 541L937.2 541C914.3 541 868.7 541 823 541C777.3 541 731.7 541 686 541C640.3 541 594.7 541 548.8 541C503 541 457 541 411.2 541C365.3 541 319.7 541 274 541C228.3 541 182.7 541 137 541C91.3 541 45.7 541 22.8 541L0 541Z" fill="#000000"></path></svg>